# Object Export From Tinkercad Server 2015

mtllib obj.mtl

o obj_0
v -74 		-11 		4
v -74 		0.06 		4
v -74 		0.06 		0
v -74 		-11 		0
v -12.209 		-27 		4
v -16.026 		-27 		4
v -16.026 		-27 		0
v -12.209 		-27 		0
v 6.733 		-27 		4
v 6.733 		-27 		0
v 14.881 		-8.827 		4
v 14.881 		-8.827 		0
v 3.308 		-27 		4
v 3.308 		-27 		0
v -4 		-27 		4
v -7.84 		-27 		4
v -7.84 		-27 		0
v -4 		-27 		0
v -12.211 		-21.236 		0
v -51.677 		9.254 		0
v -51.946 		9.6 		0
v 13.538 		-0.408 		0
v -26.922 		13.836 		4
v -26.922 		13.836 		0
v 13.538 		-0.408 		4
v -26.07 		13.836 		0
v -26.07 		13.836 		4
v -52.159 		9.73 		0
v -23.225 		5.582 		0
v -23.225 		5.582 		4
v 13.415 		-1.237 		0
v 13.415 		-1.237 		4
v -52.439 		9.824 		0
v -22.429 		5.912 		0
v -22.429 		5.912 		4
v -53.202 		9.898 		0
v -21.686 		6.462 		0
v 13 		-5.59 		0
v -21.686 		6.462 		4
v 13 		-5.59 		4
v -21.048 		7.201 		0
v -21.048 		7.201 		4
v -50.479 		11.165 		0
v -49.444 		10.776 		0
v 13.656 		-2.419 		0
v -20.566 		8.099 		0
v -20.566 		8.099 		4
v 13.656 		-2.419 		4
v -54.938 		12.003 		0
v -53.451 		12.003 		0
v -54.938 		9.898 		0
v -26.922 		7.793 		4
v -26.922 		7.793 		0
v 14.38 		-3.372 		0
v 14.38 		-3.372 		4
v 3.308 		-22.368 		0
v 13.445 		5.953 		0
v -1 		-15.94 		0
v 2.796 		-15.94 		0
v -26.085 		7.793 		0
v -26.085 		7.793 		4
v 6.733 		-22.368 		0
v -25.168 		7.853 		0
v -25.168 		7.853 		4
v 5.025 		-19.671 		0
v 7.258 		-15.94 		0
v 11.034 		-15.94 		0
v -24.561 		8.031 		0
v -24.561 		8.031 		4
v 4.816 		2.06 		4
v 4.816 		2.06 		0
v -0.88 		2.06 		0
v -0.88 		2.06 		4
v -4.324 		-15.94 		0
v -7.767 		-21.297 		0
v -10.024 		-23.447 		0
v -38.951 		17 		4
v -41.319 		16.631 		4
v -15.679 		-15.94 		0
v -11.914 		-15.94 		0
v -9.957 		-19.342 		0
v -37.085 		16.789 		4
v 8.589 		0.781 		4
v -36.906 		12.888 		4
v 7.995 		1.401 		4
v 7.238 		1.789 		4
v -37.238 		13.627 		4
v -8.051 		-15.94 		0
v -37.94 		14.231 		4
v -12.211 		-21.236 		4
v -33.888 		13.559 		4
v -34.623 		15.083 		4
v -38.868 		14.442 		4
v 8.709 		-2.599 		4
v 9.004 		-1.868 		4
v 13.445 		5.953 		4
v 12.343 		6.788 		4
v 9.102 		-1.01 		4
v -25.567 		-5.896 		4
v 8.974 		-0.034 		4
v -25.567 		-3.655 		4
v -25.567 		-1.188 		4
v -15.679 		-15.94 		4
v -10.024 		-23.447 		4
v -25.567 		-10 		4
v -29 		-10 		4
v 2.796 		-15.94 		4
v 10 		-9 		4
v 8.345 		-5.795 		4
v -20.538 		0.178 		0
v -1 		-15.94 		4
v -20.538 		0.178 		4
v 3.308 		-22.368 		4
v -21.696 		0.84 		0
v -21.696 		0.84 		4
v 3.994 		-2.421 		4
v 2.553 		-2.421 		4
v -23.319 		1.06 		0
v -23.319 		1.06 		4
v 4.899 		-2.27 		4
v 6.733 		-22.368 		4
v -19.866 		-3.827 		0
v -19.866 		-3.827 		4
v 5.208 		-2.15 		4
v -19.614 		-2.335 		0
v 11.034 		-15.94 		4
v -19.614 		-2.335 		4
v 7.258 		-15.94 		4
v -19.845 		-0.892 		0
v -19.845 		-0.892 		4
v 5.454 		-1.923 		4
v 5.025 		-19.671 		4
v 5.615 		-1.623 		4
v -24.272 		-3.634 		0
v 5.669 		-1.282 		4
v -24.272 		-3.634 		4
v -4.324 		-15.94 		4
v -7.767 		-21.297 		4
v -23.888 		-3.569 		0
v -23.888 		-3.569 		4
v 5.584 		-0.809 		4
v -23.578 		-3.462 		0
v -23.578 		-3.462 		4
v 5.478 		-0.618 		4
v 7.63 		-3.681 		4
v -23.341 		-3.312 		0
v -23.341 		-3.312 		4
v -11.914 		-15.94 		4
v 5.33 		-0.46 		4
v -23.166 		-3.128 		0
v -8.051 		-15.94 		4
v -23.166 		-3.128 		4
v -9.957 		-19.342 		4
v 5.123 		-0.334 		4
v -23.041 		-2.92 		0
v -23.041 		-2.92 		4
v 4.841 		-0.245 		4
v -22.966 		-2.689 		0
v -22.966 		-2.689 		4
v 4.054 		-0.173 		4
v -47 		-11 		4
v -50.222 		-11 		4
v -50.222 		-11 		0
v -47 		-11 		0
v -54.364 		-11 		4
v -57.578 		-11 		4
v -22.941 		-2.433 		0
v -57.578 		-11 		0
v -54.364 		-11 		0
v -22.941 		-2.433 		4
v -61.558 		-11 		4
v -64.357 		-11 		4
v -64.357 		-11 		0
v 2.553 		-0.173 		4
v -61.558 		-11 		0
v -69.048 		-11 		4
v -69.048 		-11 		0
v -23.028 		-1.952 		0
v -66.515 		-11 		4
v -23.028 		-1.952 		4
v -66.515 		-11 		0
v -71.201 		-11 		4
v -71.201 		-11 		0
v -23.288 		-1.55 		0
v -23.288 		-1.55 		4
v 13.909 		0.374 		0
v 14.528 		1.051 		0
v 4.311 		-5.62 		4
v -23.5 		-1.392 		4
v -23.5 		-1.392 		0
v 3.692 		-4.768 		4
v -23.788 		-1.279 		4
v -23.788 		-1.279 		0
v 14.229 		-8.351 		0
v 13.379 		-7.118 		0
v 7.866 		-5.108 		4
v 7.319 		-4.527 		4
v -24.153 		-1.211 		4
v -24.153 		-1.211 		0
v 2.855 		-4.511 		4
v 6.429 		-4.119 		4
v -23.696 		-5.896 		0
v -23.696 		-5.896 		4
v 2.553 		-4.511 		4
v -21.894 		-5.66 		0
v -21.894 		-5.66 		4
v 7.238 		1.789 		0
v -20.621 		-4.953 		0
v 7.995 		1.401 		0
v -20.621 		-4.953 		4
v 8.589 		0.781 		0
v 6.138 		-9 		4
v -25.567 		-5.896 		0
v 8.974 		-0.034 		0
v 9.102 		-1.01 		0
v 2.553 		-9 		4
v 9.004 		-1.868 		0
v 8.709 		-2.599 		0
v -24.729 		-3.655 		0
v -25.567 		-3.655 		0
v -24.729 		-3.655 		4
v -0.88 		-9 		4
v 8.345 		-5.795 		0
v 10 		-9 		0
v -24.594 		-1.188 		4
v -24.594 		-1.188 		0
v 2.553 		-2.421 		0
v 3.994 		-2.421 		0
v -25.567 		-1.188 		0
v 4.899 		-2.27 		0
v 5.208 		-2.15 		0
v -25.567 		-10 		0
v 5.454 		-1.923 		0
v -32 		-4.198 		4
v -32.373 		-1.824 		4
v 5.615 		-1.623 		0
v -32.652 		-7.378 		4
v -32.163 		-5.963 		4
v 5.669 		-1.282 		0
v -37.749 		1.438 		4
v -40.146 		1.061 		4
v -41.123 		0.589 		4
v -34.32 		0.604 		4
v -35.304 		1.067 		4
v 5.584 		-0.809 		0
v -35.575 		-2.801 		4
v 5.478 		-0.618 		0
v -35.772 		-2.283 		4
v 7.63 		-3.681 		0
v -36.048 		-1.87 		4
v 5.33 		-0.46 		0
v -36.79 		-1.33 		4
v 5.123 		-0.334 		0
v -32.84 		-0.86 		4
v 4.841 		-0.245 		0
v -37.756 		-1.15 		4
v 4.054 		-0.173 		0
v -38.688 		-1.333 		4
v -33.494 		-0.045 		4
v -39.416 		-1.882 		4
v 2.553 		-0.173 		0
v -39.69 		-2.308 		4
v -39.886 		-2.853 		4
v 4.311 		-5.62 		0
v 3.692 		-4.768 		0
v 78.651 		0.06 		0
v 76.941 		-6.132 		0
v 76.941 		-6.132 		4
v 78.651 		0.06 		4
v 78.338 		-11 		4
v 2.855 		-4.511 		0
v 80.271 		-4.037 		4
v 7.319 		-4.527 		0
v 7.866 		-5.108 		0
v 40.838 		5.221 		4
v 40.838 		5.221 		0
v 6.429 		-4.119 		0
v 44.264 		5.221 		4
v 44.264 		5.221 		0
v 36.838 		5.221 		4
v 33.405 		5.221 		4
v 33.405 		5.221 		0
v 36.838 		5.221 		0
v 26.252 		5.221 		4
v 26.252 		5.221 		0
v 2.553 		-4.511 		0
v 29.67 		5.221 		4
v 29.67 		5.221 		0
v 6.138 		-9 		0
v 2.553 		-9 		0
v -0.88 		-9 		0
v -16.154 		0.149 		0
v -15.495 		0.981 		0
v -14.668 		1.643 		0
v -13.691 		2.116 		0
v -11.289 		2.494 		0
v -8.849 		2.124 		0
v -7.865 		1.662 		0
v -7.038 		1.015 		0
v -6.382 		0.196 		0
v -6.747 		-7.141 		0
v -5.91 		-7.699 		0
v -5.118 		-8.084 		0
v -6.068 		-10 		0
v -7.486 		-9.174 		0
v -74.204 		5.281 		4
v -74.204 		5.281 		0
v -70.714 		5.281 		4
v -70.714 		5.281 		0
v -5.914 		-0.782 		0
v -5.54 		-3.217 		0
v -5.842 		-5.424 		0
v -1.162 		5.281 		4
v -1.162 		5.281 		0
v 2.271 		5.281 		4
v 2.271 		5.281 		0
v -6.836 		5.281 		4
v -8.958 		-3.202 		0
v -16.162 		5.281 		4
v -16.162 		5.281 		0
v -6.836 		5.281 		0
v -30.34 		5.281 		4
v -9.113 		-1.767 		0
v -30.34 		5.281 		0
v -25.262 		5.281 		0
v -25.262 		5.281 		4
v -9.308 		-1.229 		0
v -9.58 		-0.81 		0
v -9.921 		-0.497 		0
v -52.486 		5.281 		0
v -52.486 		5.281 		4
v -10.32 		-0.273 		0
v -58.386 		5.281 		4
v -58.386 		5.281 		0
v -11.297 		-0.094 		0
v -62.162 		5.281 		4
v -62.162 		5.281 		0
v -12.219 		-0.277 		0
v -65.741 		5.281 		4
v -65.741 		5.281 		0
v -69.432 		9.498 		0
v -12.949 		-0.826 		0
v -66.295 		7.106 		0
v -70.175 		7.106 		0
v -70.047 		16.341 		0
v -13.226 		-1.243 		0
v -11.289 		2.494 		4
v -13.691 		2.116 		4
v -14.668 		1.643 		4
v -15.495 		0.981 		4
v -16.154 		0.149 		4
v -13.424 		-1.763 		0
v -6.382 		0.196 		4
v -7.038 		1.015 		4
v -7.865 		1.662 		4
v -8.849 		2.124 		4
v -13.583 		-3.112 		0
v -5.91 		-7.699 		4
v -6.747 		-7.141 		4
v -5.118 		-8.084 		4
v -7.486 		-9.174 		4
v 73 		5.376 		0
v -6.068 		-10 		4
v 68.791 		5.376 		0
v -35.665 		16.155 		4
v -39.894 		14.209 		4
v -40.648 		13.508 		4
v 64.693 		5.376 		0
v 61.276 		5.376 		0
v -5.54 		-3.217 		4
v -5.914 		-0.782 		4
v -40.558 		8.809 		4
v 52.994 		5.453 		0
v 51.552 		5.281 		0
v 50.066 		5.395 		0
v -39.886 		8.298 		4
v -5.842 		-5.424 		4
v -38.128 		8.265 		4
v -8.958 		-3.202 		4
v -37.506 		8.678 		4
v 16.655 		5.281 		0
v -9.113 		-1.767 		4
v -37.073 		9.353 		4
v 14.868 		5.449 		0
v -33.783 		9.372 		4
v -36.778 		10.277 		4
v -9.308 		-1.229 		4
v -34.171 		8.216 		4
v -40.999 		12.617 		4
v -41.116 		11.33 		4
v -9.58 		-0.81 		4
v -42.276 		16.171 		4
v -43.082 		15.526 		4
v -9.921 		-0.497 		4
v -40.977 		9.78 		4
v -10.32 		-0.273 		4
v -43.72 		14.709 		4
v -44.176 		13.734 		4
v -44.541 		11.307 		4
v -44.334 		9.434 		4
v 79.418 		7.723 		0
v -11.297 		-0.094 		4
v -43.712 		7.929 		4
v -38.988 		8.127 		4
v -12.219 		-0.277 		4
v 84.752 		7.723 		0
v -35.46 		6.526 		4
v -12.949 		-0.826 		4
v -34.733 		7.267 		4
v -42.803 		6.809 		4
v -41.739 		6.086 		4
v -40.431 		5.693 		4
v -38.792 		5.562 		4
v -37.437 		5.67 		4
v -36.344 		5.992 		4
v -13.226 		-1.243 		4
v 64.693 		8.075 		0
v -37.085 		16.789 		0
v -13.424 		-1.763 		4
v -38.951 		17 		0
v -41.319 		16.631 		0
v -13.583 		-3.112 		4
v 50.209 		9.657 		0
v 50.338 		8.571 		0
v -37.238 		13.627 		0
v -36.906 		12.888 		0
v 46.942 		9.212 		0
v 52.144 		8.28 		0
v -37.94 		14.231 		0
v -9.059 		-4.477 		4
v -9.365 		-5.39 		4
v -38.868 		14.442 		0
v -33.888 		13.559 		0
v 55.754 		8.855 		0
v -34.623 		15.083 		0
v 50.745 		7.997 		0
v -12.23 		-6.203 		4
v -39.894 		14.209 		0
v 47.535 		7.058 		0
v 47.136 		8.032 		0
v -35.665 		16.155 		0
v 51.303 		7.854 		0
v -11.266 		-6.386 		4
v 48.957 		5.734 		0
v 48.141 		6.291 		0
v 51.8 		7.961 		0
v -40.648 		13.508 		0
v -10.61 		-6.318 		4
v -11.165 		-5.915 		4
v -40.558 		8.809 		0
v -39.886 		8.298 		0
v 55.502 		7.641 		0
v 54.996 		6.729 		0
v 54.151 		5.967 		0
v -11.432 		-4.304 		4
v -11.968 		-5.533 		4
v -9.742 		-5.141 		4
v -10.727 		-4.508 		4
v -38.128 		8.265 		0
v 33.405 		9.695 		0
v -13.428 		-4.653 		4
v -37.506 		8.678 		0
v -37.073 		9.353 		0
v -13.235 		-5.221 		4
v -36.778 		10.277 		0
v -12.964 		-5.654 		4
v -34.171 		8.216 		0
v -12.626 		-5.974 		4
v -33.783 		9.372 		0
v -40.999 		12.617 		0
v -16.033 		-6.775 		4
v -15.28 		-7.631 		4
v 52.412 		9.716 		0
v -41.116 		11.33 		0
v -40.977 		9.78 		0
v -9.365 		-5.39 		0
v -9.059 		-4.477 		0
v -42.276 		16.171 		0
v -43.082 		15.526 		0
v 29.67 		9.695 		0
v -43.72 		14.709 		0
v -12.23 		-6.203 		0
v 19.107 		8.435 		0
v -44.176 		13.734 		0
v 19.107 		9.476 		0
v -44.541 		11.307 		0
v -11.266 		-6.386 		0
v -44.334 		9.434 		0
v 16.821 		9.476 		0
v -38.988 		8.127 		0
v -10.61 		-6.318 		0
v 16.821 		7.703 		0
v -43.712 		7.929 		0
v -11.165 		-5.915 		0
v 17.915 		7.869 		0
v -11.968 		-5.533 		0
v -11.432 		-4.304 		0
v -10.727 		-4.508 		0
v -9.742 		-5.141 		0
v 22.102 		7.062 		0
v -42.803 		6.809 		0
v 19.42 		5.655 		0
v -41.739 		6.086 		0
v 14.432 		9.499 		0
v -13.428 		-4.653 		0
v -40.431 		5.693 		0
v 14.938 		8.473 		0
v -13.235 		-5.221 		0
v -38.792 		5.562 		0
v -12.964 		-5.654 		0
v 11.009 		9.378 		0
v -37.437 		5.67 		0
v 15.747 		7.895 		0
v -36.344 		5.992 		0
v -12.626 		-5.974 		0
v -35.46 		6.526 		0
v -34.733 		7.267 		0
v 12.343 		6.788 		0
v 11.521 		7.952 		0
v -15.28 		-7.631 		0
v -16.033 		-6.775 		0
v -51.988 		16.341 		4
v -51.988 		16.341 		0
v -8.467 		-8.454 		0
v -58.386 		16.341 		0
v -58.386 		16.341 		4
v -48.676 		13.587 		4
v -48.89 		14.663 		4
v -9.742 		-8.821 		0
v -11.304 		-8.944 		0
v -13.558 		-8.616 		0
v 68.783 		12.261 		0
v -48.828 		12.676 		4
v -16.57 		-5.762 		0
v -16.893 		-4.591 		0
v -48.162 		8.427 		4
v -17 		-3.263 		0
v -48.303 		9.394 		4
v -48.724 		10.181 		4
v -16.624 		-0.836 		0
v 66.459 		9.924 		0
v -52.201 		12.431 		4
v -29 		1.06 		0
v -52.104 		12.615 		4
v 64.693 		12.257 		0
v -52.025 		13.074 		4
v -52.104 		13.504 		4
v -52.339 		13.829 		4
v 55.838 		10.521 		0
v -52.524 		13.948 		4
v 29.67 		12.411 		0
v -52.768 		14.033 		4
v 33.405 		12.411 		0
v -49.532 		15.549 		4
v -50.574 		16.143 		4
v -49.287 		11.905 		4
v -52.773 		12.072 		4
v 16.821 		11.777 		0
v -52.525 		12.158 		4
v -52.339 		12.278 		4
v 22.102 		11.777 		0
v 18.654 		12.999 		0
v 17.964 		13.958 		0
v -50.479 		11.165 		4
v 21.951 		13.588 		0
v -51.678 		8.337 		4
v 14.931 		13.508 		0
v -51.588 		8.812 		4
v -51.677 		9.254 		4
v 14.43 		12.5 		0
v -51.946 		9.6 		4
v 14.263 		11.038 		0
v -52.159 		9.73 		4
v -52.439 		9.824 		4
v -53.202 		9.898 		4
v 11.025 		12.693 		0
v -49.444 		10.776 		4
v 10.838 		11 		0
v -53.451 		12.003 		4
v -54.938 		12.003 		4
v 40.838 		16.281 		0
v -54.938 		9.898 		4
v 44.264 		16.281 		0
v -53.429 		14.101 		4
v -54.938 		14.101 		4
v 76 		16.06 		0
v 79.418 		16.06 		0
v 72.819 		16.436 		0
v -53.195 		7.657 		4
v -54.938 		7.657 		4
v -52.442 		7.736 		4
v 68.273 		16.436 		0
v -52.164 		7.833 		4
v 61.276 		16.436 		0
v 64.693 		16.436 		0
v -51.95 		7.97 		4
v 52.412 		16.531 		0
v 55.838 		16.531 		0
v -48.262 		7.61 		4
v -50.954 		5.432 		4
v -49.656 		5.794 		4
v -49.036 		6.265 		4
v -48.562 		6.88 		4
v 33.405 		16.281 		0
v 36.838 		16.281 		0
v 26.252 		16.281 		0
v 29.67 		16.281 		0
v -48.162 		8.427 		0
v -29 		-10 		0
v 15.091 		16.585 		0
v -48.676 		13.587 		0
v 16.798 		16.719 		0
v 18.401 		16.636 		0
v 19.541 		16.387 		0
v -48.89 		14.663 		0
v -32.373 		-1.824 		0
v -32 		-4.198 		0
v -32.163 		-5.963 		0
v -32.652 		-7.378 		0
v 16.723 		14.289 		0
v -48.303 		9.394 		0
v -48.828 		12.676 		0
v -41.123 		0.589 		0
v 20.373 		15.963 		0
v -40.146 		1.061 		0
v 21.05 		15.357 		0
v -37.749 		1.438 		0
v -35.304 		1.067 		0
v -34.32 		0.604 		0
v 15.713 		14.094 		0
v -48.724 		10.181 		0
v -35.575 		-2.801 		0
v -49.532 		15.549 		0
v -35.772 		-2.283 		0
v -50.574 		16.143 		0
v -36.048 		-1.87 		0
v -52.201 		12.431 		0
v -36.79 		-1.33 		0
v 13.773 		16.183 		0
v -52.104 		12.615 		0
v -52.025 		13.074 		0
v -37.756 		-1.15 		0
v 12.505 		15.328 		0
v -32.84 		-0.86 		0
v -52.104 		13.504 		0
v 11.585 		14.15 		0
v -52.339 		13.829 		0
v -38.688 		-1.333 		0
v -33.494 		-0.045 		0
v 7.288 		16.341 		0
v 7.288 		13.965 		0
v -52.524 		13.948 		0
v -39.416 		-1.882 		0
v -52.768 		14.033 		0
v 2.271 		13.965 		0
v 2.271 		12.033 		0
v -39.69 		-2.308 		0
v 6.556 		12.033 		0
v 6.556 		9.8 		0
v 2.271 		9.8 		0
v -49.287 		11.905 		0
v -1.162 		16.341 		0
v -39.886 		-2.853 		0
v -7.002 		16.341 		0
v -7.002 		13.98 		0
v -12.736 		13.98 		0
v -40.042 		-4.304 		0
v -39.887 		-5.743 		0
v -12.736 		12.222 		0
v -7.417 		12.222 		0
v -52.773 		12.072 		0
v -7.417 		9.966 		0
v -12.736 		9.966 		0
v -16.162 		16.341 		0
v -52.525 		12.158 		0
v -12.736 		7.786 		0
v -39.692 		-6.286 		0
v -52.339 		12.278 		0
v -6.836 		7.786 		0
v -39.42 		-6.711 		0
v -23.917 		12.794 		0
v -39.081 		-7.031 		0
v -51.678 		8.337 		0
v -39.887 		-5.743 		4
v -40.042 		-4.304 		4
v -38.685 		-7.259 		0
v -51.588 		8.812 		0
v -39.692 		-6.286 		4
v -37.726 		-7.442 		0
v -39.42 		-6.711 		4
v -36.749 		-7.263 		0
v -39.081 		-7.031 		4
v -36.354 		-7.039 		0
v -38.685 		-7.259 		4
v -37.726 		-7.442 		4
v -36.021 		-6.725 		0
v -36.749 		-7.263 		4
v -35.757 		-6.296 		0
v -35.568 		-5.724 		0
v -36.354 		-7.039 		4
v -35.418 		-4.153 		0
v -36.021 		-6.725 		4
v -53.429 		14.101 		0
v -54.938 		14.101 		0
v -35.757 		-6.296 		4
v -35.568 		-5.724 		4
v -50.954 		5.432 		0
v -35.418 		-4.153 		4
v -49.656 		5.794 		0
v -49.036 		6.265 		0
v -48.562 		6.88 		0
v -48.262 		7.61 		0
v -33.45 		-8.482 		0
v -34.538 		-9.31 		0
v -35.924 		-9.827 		0
v -37.613 		-10 		0
v -39.323 		-9.851 		0
v -40.71 		-9.404 		0
v -53.195 		7.657 		0
v -54.938 		7.657 		0
v -52.442 		7.736 		0
v -52.164 		7.833 		0
v -51.95 		7.97 		0
v -34.538 		-9.31 		4
v -33.45 		-8.482 		4
v -43.46 		-4.289 		0
v -43.083 		-1.88 		0
v -42.612 		-0.901 		0
v -41.951 		-0.071 		0
v -41.82 		-8.634 		0
v -42.698 		-7.518 		0
v -40.71 		-9.404 		4
v -43.27 		-6.065 		0
v -39.323 		-9.851 		4
v -37.613 		-10 		4
v -35.924 		-9.827 		4
v -66.319 		16.341 		4
v -66.319 		16.341 		0
v -50.222 		-6.059 		0
v -54.364 		-4.927 		0
v -50.222 		0.06 		0
v -47 		0.06 		0
v -57.578 		0.06 		0
v -42.698 		-7.518 		4
v -54.386 		0.06 		0
v -41.82 		-8.634 		4
v -68.224 		13.474 		0
v -67.004 		9.498 		0
v -67.004 		9.498 		4
v -68.224 		13.474 		4
v -41.951 		-0.071 		4
v -61.558 		0.06 		0
v -42.612 		-0.901 		4
v -43.083 		-1.88 		4
v -64.357 		-2.565 		0
v -43.46 		-4.289 		4
v -43.27 		-6.065 		4
v -69.505 		0.06 		0
v -67.771 		-6.67 		0
v -71.201 		-2.565 		0
v -66.051 		0.06 		0
v -66.295 		7.106 		4
v -71.201 		-2.565 		4
v -64.357 		-2.565 		4
v -57.578 		0.06 		4
v -54.364 		-4.927 		4
v -29 		1.06 		4
v 14.528 		1.051 		4
v 13.909 		0.374 		4
v 13.379 		-7.118 		4
v 14.229 		-8.351 		4
v -8.467 		-8.454 		4
v -13.558 		-8.616 		4
v -11.304 		-8.944 		4
v -9.742 		-8.821 		4
v -16.893 		-4.591 		4
v -16.57 		-5.762 		4
v -16.624 		-0.836 		4
v -17 		-3.263 		4
v 6.556 		9.8 		4
v 2.271 		9.8 		4
v 66.459 		9.924 		4
v 68.783 		12.261 		4
v 64.693 		12.257 		4
v 17.972 		-1.81 		0
v 21.182 		-2.787 		0
v 22.02 		-3.341 		0
v 22.593 		-4.013 		0
v 16.682 		-6.593 		0
v 17.323 		-7.097 		0
v 18.191 		-7.265 		0
v 18.839 		-7.179 		0
v -47 		0.06 		4
v 19.318 		-6.922 		0
v -50.222 		0.06 		4
v -50.222 		-6.059 		4
v 19.714 		-6.126 		0
v 19.337 		-5.356 		0
v 22.887 		-6.673 		0
v 22.446 		-7.612 		0
v 17.587 		-4.715 		0
v -54.386 		0.06 		4
v 22.924 		-4.788 		0
v 23.034 		-5.651 		0
v 21.74 		-8.402 		0
v 20.801 		-8.974 		0
v 19.607 		-9.322 		0
v -61.558 		0.06 		4
v 18.138 		-9.438 		0
v -69.505 		0.06 		4
v 15.75 		-9.166 		0
v -66.051 		0.06 		4
v 16.252 		-5.386 		0
v -67.771 		-6.67 		4
v 15.661 		-4.126 		0
v 22.235 		0.19 		0
v 22.235 		0.19 		4
v -24.168 		13.187 		0
v 21.348 		1.212 		0
v 21.348 		1.212 		4
v -24.502 		13.471 		0
v 15 		-24.707 		4
v 15 		-24.707 		0
v 15 		-27 		0
v 19.983 		1.803 		0
v 15 		-27 		4
v 19.983 		1.803 		4
v 18.115 		2 		0
v 18.115 		2 		4
v -23.905 		16.239 		0
v -22.837 		15.934 		0
v -21.993 		15.438 		0
v -21.309 		14.765 		0
v -20.788 		13.94 		0
v -20.434 		12.991 		0
v 16.571 		1.891 		0
v 16.571 		1.891 		4
v -24.157 		8.357 		0
v 22.672 		-1.297 		0
v 22.672 		-1.297 		4
v -23.852 		8.861 		0
v -23.659 		9.637 		0
v -23.595 		10.781 		0
v 22.593 		-4.013 		4
v 25.494 		-27 		0
v 25.494 		-27 		4
v -23.738 		12.261 		0
v 22.02 		-3.341 		4
v -20.162 		10.849 		0
v -20.263 		9.275 		0
v 15.395 		1.566 		4
v 19.251 		-0.841 		0
v 19.45 		-1.486 		0
v 19.45 		-1.486 		4
v 19.251 		-0.841 		4
v -24.93 		13.674 		0
v 18.911 		-0.399 		0
v 18.911 		-0.399 		4
v -30.34 		16.341 		0
v -25.262 		16.341 		0
v 17.776 		-0.06 		4
v 17.776 		-0.06 		0
v 21.182 		-2.787 		4
v 16.878 		-0.312 		4
v 16.878 		-0.312 		0
v 16.576 		-0.928 		4
v 16.576 		-0.928 		0
v 16.825 		-1.403 		4
v 16.825 		-1.403 		0
v 17.972 		-1.81 		4
v 22.446 		-7.612 		4
v 22.887 		-6.673 		4
v 23.034 		-5.651 		4
v 16.682 		-6.593 		4
v 22.924 		-4.788 		4
v 17.323 		-7.097 		4
v 18.191 		-7.265 		4
v 18.839 		-7.179 		4
v 19.318 		-6.922 		4
v 19.714 		-6.126 		4
v 19.337 		-5.356 		4
v 17.587 		-4.715 		4
v 20.801 		-8.974 		4
v 21.74 		-8.402 		4
v 18.138 		-9.438 		4
v 19.607 		-9.322 		4
v 15.75 		-9.166 		4
v 16.252 		-5.386 		4
v 15.661 		-4.126 		4
v 15.596 		-15.94 		4
v 15.596 		-18.301 		4
v 21.144 		-18.301 		4
v 25.494 		-24.624 		4
v 19.059 		-24.624 		4
v 25.268 		-18.15 		4
v 25.268 		-15.94 		4
v 15.395 		1.566 		0
v 15.596 		-15.94 		0
v 21.144 		-18.301 		0
v 15.596 		-18.301 		0
v 19.059 		-24.624 		0
v 25.494 		-24.624 		0
v 25.268 		-15.94 		0
v 25.268 		-18.15 		0
v 27 		1.06 		0
v 27 		-1.671 		0
v 27 		-1.671 		4
v 27 		1.06 		4
v 30.485 		-1.671 		0
v 30.485 		-10 		0
v 30.485 		-10 		4
v 30.485 		-1.671 		4
v 33.903 		-10 		4
v 33.903 		-10 		0
v 33.903 		-1.671 		4
v 33.903 		-1.671 		0
v 37.388 		-1.671 		4
v 37.388 		-1.671 		0
v 37.388 		1.06 		4
v 37.388 		1.06 		0
v 42 		0.25 		4
v 42 		0.25 		0
v 42 		-6.34 		0
v 42 		-6.34 		4
v 60.189 		-11 		4
v 60.189 		-11 		0
v 63.893 		-11 		4
v 63.893 		-11 		0
v 56.012 		0.06 		0
v 59.584 		0.06 		0
v 62.074 		-7.9 		0
v 64.532 		0.06 		0
v 68 		0.06 		0
v 45.41 		0.25 		0
v 49.19 		0.25 		0
v 52.6 		0.25 		0
v 45.41 		-6.497 		0
v 45.535 		-7.303 		0
v 45.912 		-7.911 		0
v -70.047 		16.341 		4
v 55.838 		10.521 		4
v -70.175 		7.106 		4
v 48.688 		-7.918 		0
v -69.432 		9.498 		4
v 49.064 		-7.312 		0
v 49.19 		-6.497 		0
v 52.6 		-6.34 		0
v 52.295 		-8.191 		0
v 46.511 		-8.292 		0
v 42.317 		-8.21 		0
v 47.304 		-8.419 		0
v 44.218 		-10.438 		0
v 43.045 		-9.484 		0
v 48.091 		-8.294 		0
v 29.67 		12.411 		4
v 33.405 		12.411 		4
v 51.336 		-9.714 		0
v 49.967 		-10.63 		0
v 48.871 		-10.907 		0
v 47.575 		-11 		0
v 45.814 		-10.887 		0
v 56.012 		0.06 		4
v 68 		0.06 		4
v 59.584 		0.06 		4
v 64.532 		0.06 		4
v 62.074 		-7.9 		4
v 22.102 		11.777 		4
v 16.821 		11.777 		4
v 61.276 		5.376 		4
v 18.654 		12.999 		4
v 17.964 		13.958 		4
v 52.6 		0.25 		4
v 21.951 		13.588 		4
v 52.6 		-6.34 		4
v 45.41 		0.25 		4
v 14.931 		13.508 		4
v 49.19 		0.25 		4
v 14.43 		12.5 		4
v 73 		5.376 		4
v 68.791 		5.376 		4
v 14.263 		11.038 		4
v 45.41 		-6.497 		4
v 64.693 		5.376 		4
v 45.535 		-7.303 		4
v 45.912 		-7.911 		4
v 11.025 		12.693 		4
v 48.688 		-7.918 		4
v 49.064 		-7.312 		4
v 10.838 		11 		4
v 49.19 		-6.497 		4
v 52.295 		-8.191 		4
v 46.511 		-8.292 		4
v 42.317 		-8.21 		4
v 47.304 		-8.419 		4
v 43.045 		-9.484 		4
v 44.218 		-10.438 		4
v 48.091 		-8.294 		4
v 51.336 		-9.714 		4
v 45.814 		-10.887 		4
v 47.575 		-11 		4
v 48.871 		-10.907 		4
v 49.967 		-10.63 		4
v 51.552 		5.281 		4
v 52.994 		5.453 		4
v 50.066 		5.395 		4
v 7.288 		13.965 		4
v 26.252 		16.281 		4
v 16.655 		5.281 		4
v 40.838 		16.281 		4
v 14.868 		5.449 		4
v 44.264 		16.281 		4
v 61.276 		16.436 		4
v 76 		16.06 		4
v 79.418 		16.06 		4
v 82.21 		-11 		4
v 82.21 		-11 		0
v 85.562 		-11 		4
v 85.562 		-11 		0
v 74.987 		-11 		4
v 74.987 		-11 		0
v 78.338 		-11 		0
v 84.752 		5 		0
v 72.819 		16.436 		4
v 81.886 		0.06 		0
v 83.6 		-6.123 		0
v 80.271 		-4.037 		0
v -30.34 		16.341 		4
v 84.77 		0.06 		0
v 88 		0.06 		0
v 76 		5 		0
v 72.526 		0.06 		0
v 75.772 		0.06 		0
v 68.273 		16.436 		4
v 72.526 		0.06 		4
v 88 		0.06 		4
v -16.162 		16.341 		4
v 84.752 		5 		4
v -1.162 		16.341 		4
v 64.693 		16.436 		4
v 81.886 		0.06 		4
v 84.77 		0.06 		4
v 33.405 		9.695 		4
v 83.6 		-6.123 		4
v 55.838 		16.531 		4
v 76 		5 		4
v 52.412 		16.531 		4
v 75.772 		0.06 		4
v 36.838 		16.281 		4
v 84.752 		7.723 		4
v 33.405 		16.281 		4
v 79.418 		7.723 		4
v 29.67 		16.281 		4
v 16.798 		16.719 		4
v 15.091 		16.585 		4
v 19.541 		16.387 		4
v 18.401 		16.636 		4
v 16.723 		14.289 		4
v 64.693 		8.075 		4
v 21.05 		15.357 		4
v 20.373 		15.963 		4
v 15.713 		14.094 		4
v 50.338 		8.571 		4
v 50.209 		9.657 		4
v 46.942 		9.212 		4
v 13.773 		16.183 		4
v 52.144 		8.28 		4
v 12.505 		15.328 		4
v 55.754 		8.855 		4
v 11.585 		14.15 		4
v 50.745 		7.997 		4
v 47.136 		8.032 		4
v 47.535 		7.058 		4
v 51.303 		7.854 		4
v 48.957 		5.734 		4
v 51.8 		7.961 		4
v 48.141 		6.291 		4
v 54.996 		6.729 		4
v 55.502 		7.641 		4
v 54.151 		5.967 		4
v 7.288 		16.341 		4
v 6.556 		12.033 		4
v 2.271 		13.965 		4
v 2.271 		12.033 		4
v -6.836 		7.786 		4
v -7.417 		9.966 		4
v -12.736 		9.966 		4
v -7.002 		13.98 		4
v -7.002 		16.341 		4
v -7.417 		12.222 		4
v -12.736 		13.98 		4
v -12.736 		12.222 		4
v 29.67 		9.695 		4
v -12.736 		7.786 		4
v -25.262 		16.341 		4
v -23.917 		12.794 		4
v -24.168 		13.187 		4
v -24.502 		13.471 		4
v -23.905 		16.239 		4
v -20.434 		12.991 		4
v -20.788 		13.94 		4
v -21.309 		14.765 		4
v -21.993 		15.438 		4
v -22.837 		15.934 		4
v -24.157 		8.357 		4
v -23.852 		8.861 		4
v -23.659 		9.637 		4
v -23.595 		10.781 		4
v -23.738 		12.261 		4
v -20.162 		10.849 		4
v -20.263 		9.275 		4
v 52.412 		9.716 		4
v -24.93 		13.674 		4
v 22.102 		7.062 		4
v 19.107 		8.435 		4
v 19.107 		9.476 		4
v 16.821 		9.476 		4
v 16.821 		7.703 		4
v 17.915 		7.869 		4
v 19.42 		5.655 		4
v 14.432 		9.499 		4
v 14.938 		8.473 		4
v 11.009 		9.378 		4
v 15.747 		7.895 		4
v 11.521 		7.952 		4
# 1124 vertices

g group_0_40919

usemtl color_40919
s 0

f 70 	71 	72
f 70 	72 	73
f 157 	154 	70
f 160 	157 	70
f 73 	174 	70
f 141 	135 	100
f 83 	141 	100
f 98 	100 	135
f 95 	98 	135
f 120 	201 	124
f 116 	191 	120
f 124 	201 	131
f 145 	94 	131
f 94 	95 	133
f 133 	131 	94
f 144 	141 	83
f 135 	133 	95
f 83 	85 	144
f 85 	86 	144
f 149 	144 	86
f 154 	149 	86
f 86 	70 	154
f 174 	73 	117
f 160 	70 	174
f 73 	222 	204
f 196 	212 	109
f 188 	212 	201
f 191 	188 	201
f 197 	201 	212
f 117 	204 	200
f 201 	120 	191
f 145 	131 	201
f 191 	116 	200
f 117 	200 	116
f 117 	73 	204
f 209 	247 	207
f 211 	247 	209
f 207 	253 	71
f 214 	245 	211
f 196 	197 	212
f 108 	109 	212
f 218 	236 	217
f 217 	239 	215
f 215 	239 	214
f 251 	207 	247
f 255 	257 	71
f 216 	204 	222
f 214 	211 	83
f 211 	209 	85
f 211 	85 	83
f 277 	265 	230
f 209 	207 	86
f 209 	86 	85
f 207 	71 	70
f 207 	70 	86
f 231 	277 	230
f 228 	230 	265
f 217 	95 	94
f 217 	94 	218
f 215 	98 	95
f 215 	95 	217
f 239 	217 	236
f 214 	100 	98
f 214 	98 	215
f 83 	100 	214
f 245 	214 	239
f 108 	224 	223
f 108 	223 	109
f 277 	233 	249
f 249 	233 	218
f 145 	201 	277
f 253 	207 	251
f 249 	145 	277
f 255 	71 	253
f 247 	211 	245
f 249 	218 	145
f 94 	145 	218
f 72 	71 	261
f 257 	261 	71
f 228 	227 	117
f 228 	117 	116
f 227 	286 	72
f 228 	271 	227
f 230 	228 	116
f 230 	116 	120
f 231 	230 	120
f 231 	120 	124
f 265 	277 	264
f 233 	231 	124
f 233 	124 	131
f 271 	228 	265
f 274 	289 	273
f 274 	223 	289
f 224 	289 	223
f 236 	233 	131
f 236 	131 	133
f 239 	236 	133
f 239 	133 	135
f 286 	227 	271
f 231 	233 	277
f 236 	218 	233
f 245 	239 	135
f 245 	135 	141
f 290 	291 	286
f 291 	72 	286
f 247 	245 	141
f 247 	141 	144
f 289 	264 	277
f 277 	273 	289
f 251 	247 	144
f 251 	144 	149
f 251 	149 	154
f 251 	154 	253
f 261 	227 	72
f 253 	154 	157
f 253 	157 	255
f 255 	157 	160
f 255 	160 	257
f 257 	160 	174
f 257 	174 	261
f 261 	174 	117
f 261 	117 	227
f 265 	264 	188
f 265 	188 	191
f 313 	314 	316
f 265 	191 	200
f 265 	200 	271
f 315 	313 	316
f 109 	223 	196
f 274 	196 	223
f 273 	197 	196
f 273 	196 	274
f 271 	200 	204
f 271 	204 	286
f 273 	277 	201
f 273 	201 	197
f 216 	290 	204
f 286 	204 	290
f 264 	289 	212
f 264 	212 	188
f 650 	651 	655
f 656 	658 	659
f 656 	659 	660
f 662 	650 	655
f 662 	655 	656
f 314 	662 	660
f 316 	314 	660
f 656 	660 	662
f 291 	73 	72
f 222 	73 	291
f 224 	108 	212
f 224 	212 	289
f 290 	216 	291
f 291 	216 	222
f 780 	781 	660
f 780 	660 	659
f 313 	1038 	314
f 655 	651 	1006
f 315 	781 	313
f 1038 	662 	314
f 1080 	1006 	651
f 1080 	651 	650
f 1081 	780 	659
f 1081 	659 	658
f 1006 	1082 	655
f 650 	662 	1080
f 1006 	1080 	1082
f 1038 	1082 	1080
f 658 	656 	1083
f 658 	1083 	1081
f 1083 	781 	780
f 1083 	780 	1081
f 316 	660 	315
f 781 	315 	660
f 1082 	1083 	656
f 1082 	656 	655
f 1038 	1080 	662
f 1038 	313 	781
f 781 	1083 	1038
f 1038 	1083 	1082
# 180 faces

g group_0_3888547

usemtl color_3888547
s 0

f 22 	25 	769
f 22 	31 	32
f 22 	32 	25
f 31 	45 	48
f 31 	48 	32
f 45 	54 	55
f 45 	55 	48
f 865 	867 	187
f 38 	813 	195
f 194 	195 	789
f 22 	186 	867
f 186 	187 	867
f 561 	500 	485
f 489 	558 	485
f 483 	485 	500
f 502 	381 	495
f 492 	495 	381
f 483 	502 	495
f 507 	519 	504
f 519 	507 	518
f 57 	518 	507
f 507 	513 	57
f 492 	381 	513
f 57 	513 	384
f 384 	513 	381
f 561 	485 	558
f 502 	483 	500
f 563 	624 	562
f 572 	504 	511
f 519 	511 	504
f 570 	572 	576
f 576 	646 	570
f 567 	570 	646
f 578 	572 	511
f 576 	572 	578
f 613 	620 	612
f 620 	613 	563
f 565 	562 	626
f 626 	562 	624
f 630 	610 	620
f 624 	563 	614
f 613 	614 	563
f 567 	639 	630
f 612 	620 	610
f 610 	630 	639
f 639 	567 	643
f 646 	643 	567
f 771 	874 	770
f 11 	874 	771
f 55 	868 	48
f 32 	48 	866
f 25 	32 	866
f 851 	187 	768
f 187 	186 	769
f 187 	769 	768
f 186 	22 	769
f 40 	38 	195
f 40 	195 	770
f 195 	194 	771
f 195 	771 	770
f 12 	11 	771
f 12 	771 	194
f 57 	96 	97
f 57 	97 	518
f 787 	798 	786
f 788 	798 	787
f 786 	798 	785
f 792 	794 	806
f 797 	805 	794
f 798 	788 	797
f 797 	799 	800
f 797 	800 	805
f 801 	785 	798
f 799 	797 	804
f 804 	797 	803
f 788 	803 	797
f 790 	791 	809
f 811 	790 	809
f 791 	792 	809
f 807 	809 	792
f 806 	807 	792
f 805 	806 	794
f 789 	195 	813
f 790 	811 	789
f 811 	12 	789
f 801 	815 	785
f 815 	54 	869
f 816 	819 	820
f 816 	820 	817
f 819 	825 	827
f 819 	827 	820
f 825 	828 	829
f 825 	829 	827
f 828 	836 	837
f 828 	837 	829
f 817 	840 	839
f 817 	839 	816
f 840 	854 	839
f 787 	848 	844
f 787 	844 	788
f 851 	768 	864
f 769 	866 	768
f 852 	853 	854
f 852 	854 	855
f 839 	854 	853
f 857 	852 	855
f 857 	855 	858
f 857 	858 	861
f 857 	861 	862
f 861 	858 	829
f 864 	861 	837
f 837 	851 	864
f 817 	820 	855
f 840 	817 	854
f 787 	786 	863
f 787 	863 	848
f 855 	854 	817
f 865 	862 	864
f 861 	864 	862
f 865 	864 	866
f 865 	866 	867
f 867 	866 	868
f 867 	868 	869
f 820 	827 	858
f 855 	820 	858
f 785 	869 	868
f 785 	868 	870
f 827 	829 	858
f 786 	785 	870
f 786 	870 	863
f 805 	800 	871
f 829 	837 	861
f 800 	799 	872
f 800 	872 	871
f 866 	48 	868
f 804 	872 	799
f 882 	881 	870
f 863 	870 	881
f 872 	804 	873
f 803 	875 	873
f 803 	873 	804
f 844 	875 	803
f 844 	803 	788
f 789 	813 	874
f 888 	874 	813
f 790 	789 	874
f 790 	874 	876
f 887 	885 	876
f 874 	887 	876
f 877 	885 	878
f 791 	790 	876
f 791 	876 	877
f 883 	884 	879
f 879 	878 	883
f 792 	791 	877
f 792 	877 	878
f 794 	792 	878
f 794 	878 	879
f 879 	884 	880
f 872 	880 	871
f 873 	875 	880
f 872 	873 	880
f 797 	794 	879
f 797 	879 	880
f 798 	797 	880
f 798 	880 	881
f 848 	863 	881
f 844 	848 	881
f 881 	880 	844
f 875 	844 	880
f 798 	881 	882
f 798 	882 	801
f 871 	880 	884
f 877 	876 	885
f 885 	886 	878
f 883 	878 	886
f 885 	887 	809
f 811 	809 	887
f 885 	809 	807
f 885 	807 	886
f 11 	887 	874
f 40 	770 	888
f 874 	888 	770
f 807 	806 	883
f 807 	883 	886
f 805 	884 	883
f 805 	883 	806
f 871 	884 	805
f 868 	889 	870
f 882 	870 	889
f 55 	889 	868
f 864 	768 	866
f 769 	25 	866
f 11 	811 	887
f 888 	813 	40
f 38 	40 	813
f 897 	865 	187
f 55 	815 	889
f 12 	194 	789
f 882 	889 	815
f 882 	815 	801
f 45 	869 	54
f 837 	836 	897
f 837 	897 	851
f 897 	187 	851
f 811 	11 	12
f 815 	55 	54
f 853 	852 	816
f 825 	857 	828
f 836 	828 	862
f 839 	853 	816
f 819 	816 	852
f 825 	819 	857
f 852 	857 	819
f 862 	828 	857
f 862 	865 	836
f 865 	897 	836
f 45 	31 	867
f 31 	22 	867
f 869 	45 	867
f 785 	815 	869
f 973 	1059 	970
f 976 	1069 	978
f 981 	978 	986
f 981 	986 	989
f 561 	558 	968
f 558 	489 	968
f 563 	562 	970
f 563 	970 	971
f 561 	968 	967
f 973 	970 	565
f 562 	565 	970
f 567 	1061 	976
f 567 	976 	978
f 567 	978 	570
f 570 	978 	981
f 570 	981 	572
f 572 	981 	504
f 989 	986 	576
f 576 	578 	989
f 989 	578 	511
f 1008 	1123 	1010
f 1008 	381 	1119
f 384 	1010 	96
f 384 	96 	57
f 1008 	1010 	384
f 1008 	384 	381
f 1056 	1053 	1057
f 1054 	1057 	1053
f 1059 	1060 	970
f 1057 	971 	1056
f 1055 	1056 	971
f 1060 	1055 	971
f 971 	970 	1060
f 1061 	1057 	1054
f 1054 	1065 	1061
f 976 	1061 	1065
f 976 	1065 	1067
f 976 	1067 	1069
f 986 	978 	1069
f 624 	614 	1055
f 614 	613 	1056
f 614 	1056 	1055
f 613 	612 	1053
f 613 	1053 	1056
f 612 	610 	1054
f 612 	1054 	1053
f 1065 	1054 	610
f 620 	563 	971
f 620 	971 	1057
f 973 	565 	626
f 626 	1059 	973
f 626 	624 	1060
f 626 	1060 	1059
f 624 	1055 	1060
f 630 	620 	1061
f 1057 	1061 	620
f 630 	1061 	567
f 610 	639 	1065
f 1067 	1065 	643
f 639 	643 	1065
f 643 	646 	1067
f 646 	1069 	1067
f 646 	576 	986
f 646 	986 	1069
f 1113 	500 	967
f 500 	561 	967
f 967 	1115 	1113
f 1114 	1113 	1115
f 1116 	1115 	968
f 968 	1115 	967
f 1118 	1117 	1008
f 1008 	1119 	1118
f 1114 	1118 	1119
f 1113 	1114 	1119
f 989 	1122 	981
f 1122 	1124 	1120
f 1121 	1120 	1124
f 1120 	981 	1122
f 1124 	97 	1121
f 1117 	1123 	1008
f 1123 	1121 	96
f 97 	96 	1121
f 1010 	1123 	96
f 483 	1118 	1114
f 485 	483 	1114
f 485 	1114 	1115
f 1116 	489 	485
f 1116 	485 	1115
f 968 	489 	1116
f 495 	492 	1117
f 495 	1117 	1118
f 483 	495 	1118
f 1119 	381 	502
f 502 	500 	1113
f 502 	1113 	1119
f 504 	981 	1120
f 504 	1120 	1121
f 504 	1121 	507
f 1121 	1123 	507
f 513 	507 	1123
f 989 	511 	1122
f 511 	519 	1122
f 1123 	1117 	513
f 492 	513 	1117
f 519 	1124 	1122
f 519 	518 	97
f 519 	97 	1124
# 328 faces

g group_0_4634441

usemtl color_4634441
s 0

f 23 	24 	26
f 23 	26 	27
f 29 	34 	35
f 29 	35 	30
f 34 	37 	39
f 34 	39 	35
f 41 	42 	39
f 41 	39 	37
f 46 	47 	42
f 46 	42 	41
f 52 	53 	24
f 60 	53 	52
f 60 	52 	61
f 63 	60 	61
f 63 	61 	64
f 68 	63 	64
f 68 	64 	69
f 68 	69 	1104
f 102 	767 	101
f 99 	101 	106
f 105 	99 	106
f 129 	110 	112
f 110 	114 	115
f 110 	115 	112
f 114 	118 	119
f 114 	119 	115
f 208 	122 	123
f 122 	125 	127
f 122 	127 	123
f 129 	130 	127
f 129 	127 	125
f 112 	130 	129
f 139 	134 	136
f 139 	136 	140
f 142 	139 	140
f 142 	140 	143
f 146 	142 	143
f 146 	143 	147
f 150 	146 	147
f 150 	147 	152
f 155 	150 	152
f 155 	152 	156
f 158 	155 	156
f 158 	156 	159
f 167 	158 	159
f 167 	159 	170
f 178 	167 	170
f 178 	170 	180
f 184 	178 	180
f 184 	180 	185
f 184 	185 	189
f 184 	189 	190
f 190 	189 	192
f 190 	192 	193
f 193 	192 	198
f 193 	198 	199
f 202 	205 	206
f 202 	206 	203
f 205 	208 	210
f 205 	210 	206
f 123 	210 	208
f 213 	202 	99
f 203 	99 	202
f 219 	220 	101
f 219 	101 	221
f 221 	136 	219
f 134 	219 	136
f 198 	225 	226
f 198 	226 	199
f 226 	225 	102
f 226 	102 	229
f 213 	99 	232
f 229 	102 	101
f 229 	101 	220
f 105 	232 	99
f 322 	324 	326
f 325 	326 	324
f 129 	178 	110
f 110 	184 	114
f 208 	155 	122
f 122 	158 	125
f 118 	114 	190
f 142 	146 	205
f 205 	202 	142
f 208 	205 	146
f 155 	208 	150
f 178 	129 	167
f 167 	125 	158
f 184 	110 	178
f 190 	114 	184
f 129 	125 	167
f 199 	118 	193
f 190 	193 	118
f 134 	139 	202
f 139 	142 	202
f 146 	150 	208
f 158 	122 	155
f 202 	213 	219
f 220 	219 	213
f 134 	202 	219
f 199 	226 	118
f 543 	118 	229
f 226 	229 	118
f 543 	229 	220
f 213 	609 	220
f 232 	609 	213
f 543 	220 	609
f 232 	105 	106
f 232 	106 	609
f 543 	609 	767
f 106 	767 	609
f 818 	833 	681
f 681 	834 	847
f 830 	831 	821
f 832 	821 	831
f 833 	818 	832
f 834 	681 	833
f 835 	847 	834
f 821 	832 	818
f 821 	856 	830
f 843 	847 	849
f 843 	850 	842
f 835 	849 	847
f 850 	843 	849
f 46 	842 	850
f 26 	24 	860
f 26 	860 	856
f 119 	118 	543
f 119 	543 	767
f 106 	101 	767
f 102 	225 	119
f 767 	102 	119
f 189 	185 	115
f 130 	112 	180
f 130 	170 	127
f 136 	203 	140
f 143 	206 	147
f 140 	203 	143
f 152 	210 	156
f 123 	127 	159
f 180 	170 	130
f 170 	159 	127
f 185 	180 	112
f 112 	115 	185
f 115 	119 	189
f 159 	156 	123
f 210 	123 	156
f 210 	152 	147
f 203 	221 	99
f 206 	143 	203
f 210 	147 	206
f 221 	203 	136
f 101 	99 	221
f 192 	189 	119
f 198 	192 	119
f 225 	198 	119
f 830 	856 	860
f 859 	860 	24
f 324 	859 	53
f 24 	53 	859
f 60 	63 	325
f 29 	325 	63
f 68 	29 	63
f 53 	60 	325
f 324 	53 	325
f 838 	34 	68
f 842 	46 	841
f 841 	41 	838
f 41 	841 	46
f 37 	838 	41
f 34 	838 	37
f 29 	68 	34
f 35 	69 	30
f 326 	325 	29
f 326 	29 	30
f 324 	1027 	859
f 324 	322 	1027
f 1094 	860 	859
f 1094 	859 	1027
f 1100 	1101 	1095
f 1094 	1112 	1098
f 1101 	1102 	1096
f 1099 	1100 	1108
f 1095 	1108 	1100
f 1096 	1095 	1101
f 1097 	1096 	1102
f 1102 	1103 	1097
f 1098 	1097 	1103
f 39 	42 	1104
f 1105 	1104 	42
f 1106 	1105 	47
f 42 	47 	1105
f 1107 	1109 	1108
f 1099 	1108 	1109
f 1107 	1106 	1110
f 1109 	1107 	1110
f 1097 	1098 	1112
f 27 	1094 	23
f 27 	1112 	1094
f 1027 	23 	1094
f 1027 	322 	52
f 52 	23 	1027
f 322 	326 	52
f 64 	61 	326
f 61 	52 	326
f 47 	1110 	1106
f 69 	35 	1104
f 326 	30 	64
f 69 	64 	30
f 39 	1104 	35
f 849 	835 	1099
f 835 	834 	1100
f 835 	1100 	1099
f 834 	833 	1101
f 834 	1101 	1100
f 833 	832 	1102
f 833 	1102 	1101
f 832 	831 	1103
f 832 	1103 	1102
f 831 	830 	1098
f 831 	1098 	1103
f 830 	1094 	1098
f 818 	681 	1095
f 818 	1095 	1096
f 818 	1096 	1097
f 818 	1097 	821
f 46 	850 	1110
f 46 	1110 	47
f 850 	849 	1109
f 850 	1109 	1110
f 1099 	1109 	849
f 838 	68 	1104
f 841 	838 	1104
f 841 	1104 	1105
f 842 	841 	1105
f 842 	1105 	1106
f 843 	842 	1106
f 843 	1106 	1107
f 847 	843 	1107
f 847 	1107 	1108
f 1108 	1095 	847
f 681 	847 	1095
f 830 	860 	1094
f 23 	52 	24
f 1097 	1112 	856
f 1097 	856 	821
f 856 	1112 	27
f 856 	27 	26
# 248 faces

g group_0_6383466

usemtl color_6383466
s 0

f 5 	6 	7
f 5 	7 	8
f 15 	16 	17
f 15 	17 	18
f 7 	19 	8
f 17 	76 	75
f 17 	75 	18
f 81 	19 	80
f 79 	80 	19
f 74 	75 	88
f 81 	88 	75
f 75 	76 	81
f 19 	81 	76
f 19 	76 	8
f 19 	7 	6
f 19 	6 	90
f 5 	90 	6
f 90 	103 	79
f 90 	79 	19
f 76 	17 	16
f 76 	16 	104
f 137 	138 	75
f 137 	75 	74
f 74 	151 	137
f 151 	138 	137
f 138 	15 	18
f 138 	18 	75
f 15 	138 	16
f 104 	16 	138
f 104 	5 	8
f 104 	8 	76
f 103 	148 	80
f 103 	80 	79
f 74 	88 	151
f 148 	153 	81
f 148 	81 	80
f 153 	148 	90
f 103 	90 	148
f 88 	81 	153
f 88 	153 	151
f 90 	5 	104
f 151 	153 	138
f 104 	138 	153
f 90 	104 	153
f 406 	1022 	401
f 1030 	586 	401
f 587 	401 	586
f 1030 	1013 	586
f 587 	586 	1013
f 587 	1013 	1014
f 1030 	401 	1022
f 1030 	1022 	1037
f 406 	1049 	1022
f 1037 	1022 	1049
f 1051 	1037 	1049
f 1037 	1045 	1030
f 1051 	1045 	1037
f 1045 	1013 	1030
f 406 	401 	1051
f 406 	1051 	1049
f 1013 	1045 	1051
f 1014 	1051 	587
f 401 	587 	1051
f 1051 	1014 	1013
# 64 faces

g group_0_7720667

usemtl color_7720667
s 0

f 338 	342 	295
f 295 	296 	338
f 335 	338 	296
f 297 	332 	296
f 298 	329 	297
f 299 	328 	298
f 300 	327 	299
f 540 	292 	352
f 301 	302 	305
f 303 	304 	302
f 305 	302 	304
f 318 	323 	311
f 312 	477 	311
f 301 	476 	312
f 310 	311 	323
f 323 	327 	310
f 328 	299 	327
f 317 	319 	320
f 317 	320 	321
f 300 	310 	327
f 332 	297 	329
f 335 	296 	332
f 329 	298 	328
f 293 	294 	342
f 294 	295 	342
f 342 	346 	293
f 292 	293 	346
f 349 	408 	348
f 350 	408 	349
f 347 	348 	405
f 347 	405 	402
f 394 	391 	355
f 355 	356 	394
f 396 	394 	356
f 347 	396 	356
f 357 	537 	352
f 358 	359 	361
f 361 	363 	358
f 360 	358 	363
f 387 	382 	371
f 371 	382 	370
f 370 	430 	377
f 379 	430 	370
f 379 	370 	382
f 371 	353 	387
f 353 	354 	387
f 391 	387 	354
f 354 	355 	391
f 396 	347 	402
f 405 	348 	408
f 416 	408 	350
f 419 	416 	351
f 350 	351 	416
f 351 	778 	419
f 778 	779 	419
f 431 	377 	430
f 774 	443 	437
f 443 	774 	448
f 775 	772 	448
f 455 	456 	449
f 431 	457 	448
f 774 	775 	448
f 449 	448 	457
f 457 	458 	449
f 455 	449 	458
f 464 	461 	777
f 505 	508 	534
f 346 	352 	292
f 477 	312 	476
f 318 	311 	477
f 497 	498 	494
f 305 	524 	301
f 496 	497 	494
f 498 	499 	494
f 491 	494 	499
f 499 	476 	491
f 301 	524 	476
f 508 	510 	521
f 520 	521 	510
f 515 	520 	510
f 482 	531 	515
f 524 	529 	491
f 520 	515 	531
f 521 	534 	508
f 534 	535 	505
f 357 	505 	535
f 535 	537 	357
f 531 	482 	530
f 487 	491 	530
f 529 	530 	491
f 487 	530 	482
f 491 	476 	524
f 540 	352 	537
f 664 	665 	666
f 669 	670 	672
f 669 	672 	673
f 674 	664 	666
f 674 	666 	669
f 673 	674 	669
f 676 	320 	673
f 679 	321 	676
f 321 	320 	676
f 674 	673 	320
f 437 	468 	773
f 468 	466 	472
f 472 	773 	468
f 471 	472 	466
f 466 	464 	471
f 359 	772 	361
f 772 	359 	431
f 377 	431 	359
f 431 	448 	772
f 774 	437 	773
f 777 	471 	464
f 776 	777 	461
f 422 	419 	779
f 779 	776 	422
f 461 	422 	776
f 300 	353 	371
f 300 	299 	354
f 300 	354 	353
f 299 	298 	355
f 299 	355 	354
f 298 	297 	356
f 298 	356 	355
f 297 	296 	347
f 297 	347 	356
f 296 	295 	348
f 296 	348 	347
f 295 	294 	349
f 295 	349 	348
f 294 	293 	350
f 294 	350 	349
f 293 	292 	351
f 293 	351 	350
f 305 	304 	363
f 305 	363 	361
f 363 	304 	303
f 363 	303 	360
f 302 	301 	359
f 302 	359 	358
f 303 	302 	358
f 303 	358 	360
f 359 	301 	312
f 359 	312 	377
f 312 	311 	370
f 312 	370 	377
f 310 	371 	370
f 310 	370 	311
f 371 	310 	300
f 292 	540 	351
f 323 	318 	379
f 323 	379 	382
f 327 	323 	382
f 327 	382 	387
f 328 	327 	387
f 328 	387 	391
f 328 	391 	394
f 328 	394 	329
f 329 	394 	396
f 329 	396 	332
f 332 	396 	402
f 332 	402 	335
f 335 	402 	405
f 335 	405 	338
f 338 	405 	408
f 338 	408 	342
f 342 	408 	416
f 342 	416 	346
f 346 	416 	419
f 346 	419 	352
f 352 	419 	422
f 352 	422 	357
f 357 	422 	505
f 477 	476 	431
f 477 	431 	430
f 430 	379 	477
f 318 	477 	379
f 431 	476 	499
f 431 	499 	457
f 499 	498 	458
f 499 	458 	457
f 498 	497 	455
f 498 	455 	458
f 497 	496 	456
f 497 	456 	455
f 515 	437 	482
f 487 	482 	437
f 487 	437 	443
f 491 	487 	443
f 491 	443 	448
f 491 	448 	449
f 491 	449 	494
f 494 	449 	456
f 494 	456 	496
f 471 	777 	521
f 534 	521 	777
f 521 	520 	472
f 521 	472 	471
f 472 	520 	531
f 422 	461 	505
f 505 	461 	464
f 505 	464 	508
f 508 	464 	466
f 508 	466 	510
f 515 	510 	466
f 515 	466 	468
f 515 	468 	437
f 531 	773 	472
f 530 	774 	773
f 530 	773 	531
f 529 	775 	774
f 529 	774 	530
f 305 	361 	524
f 772 	524 	361
f 524 	772 	775
f 524 	775 	529
f 540 	778 	351
f 540 	537 	779
f 540 	779 	778
f 779 	537 	535
f 779 	535 	776
f 535 	534 	777
f 535 	777 	776
f 1084 	317 	321
f 319 	317 	1093
f 1084 	1093 	317
f 674 	320 	1036
f 319 	1036 	320
f 321 	679 	1084
f 1085 	1086 	673
f 1085 	673 	672
f 666 	665 	1087
f 1088 	1087 	665
f 1088 	665 	664
f 1089 	1085 	672
f 1089 	672 	670
f 1087 	1090 	666
f 1036 	1088 	664
f 1087 	1088 	1090
f 1036 	1090 	1088
f 670 	669 	1091
f 670 	1091 	1089
f 1091 	1086 	1085
f 1091 	1085 	1089
f 1086 	1093 	676
f 1086 	676 	673
f 1090 	1091 	669
f 1090 	669 	666
f 664 	674 	1036
f 1036 	319 	1086
f 1086 	1091 	1036
f 1036 	1091 	1090
f 679 	676 	1093
f 679 	1093 	1084
f 1093 	1086 	319
# 256 faces

g group_0_8273816

usemtl color_8273816
s 0

f 280 	281 	282
f 280 	282 	283
f 284 	285 	288
f 287 	284 	288
f 282 	460 	283
f 480 	288 	285
f 605 	283 	460
f 460 	480 	553
f 551 	553 	480
f 460 	553 	605
f 285 	606 	480
f 551 	480 	606
f 607 	551 	606
f 604 	605 	553
f 285 	1007 	606
f 905 	906 	907
f 905 	907 	908
f 909 	910 	911
f 909 	911 	912
f 913 	911 	910
f 913 	910 	914
f 915 	913 	914
f 915 	914 	916
f 914 	910 	909
f 914 	909 	916
f 915 	912 	911
f 915 	911 	913
f 912 	907 	906
f 912 	906 	909
f 917 	915 	916
f 917 	916 	918
f 919 	917 	918
f 919 	918 	920
f 920 	905 	908
f 920 	908 	919
f 909 	905 	916
f 906 	905 	909
f 905 	920 	916
f 918 	916 	920
f 908 	907 	912
f 908 	912 	915
f 917 	919 	915
f 908 	915 	919
f 553 	551 	955
f 553 	955 	956
f 955 	1092 	956
f 956 	1050 	553
f 284 	1007 	285
f 1048 	956 	1042
f 1092 	1042 	956
f 955 	551 	607
f 1092 	955 	1007
f 605 	1048 	283
f 280 	283 	1048
f 1048 	1042 	280
f 287 	288 	480
f 287 	1092 	284
f 460 	282 	281
f 460 	281 	1042
f 605 	604 	1050
f 605 	1050 	1048
f 604 	553 	1050
f 1050 	956 	1048
f 1052 	955 	607
f 607 	606 	1007
f 607 	1007 	1052
f 955 	1052 	1007
f 281 	280 	1042
f 1042 	1092 	480
f 1042 	480 	460
f 1092 	287 	480
f 1007 	284 	1092
# 72 faces

g group_0_11107152

usemtl color_11107152
s 0

f 14 	10 	13
f 9 	13 	10
f 56 	58 	59
f 62 	65 	66
f 67 	62 	66
f 59 	65 	56
f 65 	62 	56
f 10 	56 	62
f 14 	56 	10
f 59 	58 	111
f 59 	111 	107
f 58 	56 	113
f 58 	113 	111
f 113 	107 	111
f 13 	113 	56
f 13 	56 	14
f 121 	9 	10
f 121 	10 	62
f 132 	113 	121
f 126 	121 	62
f 126 	62 	67
f 67 	66 	128
f 67 	128 	126
f 128 	132 	121
f 128 	121 	126
f 107 	113 	132
f 9 	121 	13
f 13 	121 	113
f 128 	66 	65
f 128 	65 	132
f 59 	107 	65
f 132 	65 	107
f 375 	442 	374
f 439 	440 	424
f 436 	445 	424
f 423 	424 	427
f 473 	434 	428
f 427 	424 	440
f 442 	375 	436
f 439 	424 	445
f 444 	445 	436
f 446 	374 	442
f 444 	436 	375
f 452 	453 	428
f 428 	454 	446
f 454 	428 	453
f 373 	446 	454
f 374 	446 	373
f 452 	428 	434
f 434 	473 	549
f 473 	597 	549
f 598 	549 	597
f 926 	928 	925
f 927 	925 	928
f 929 	930 	931
f 929 	931 	926
f 932 	933 	931
f 933 	928 	931
f 926 	931 	928
f 941 	549 	598
f 925 	962 	929
f 925 	929 	926
f 963 	927 	928
f 963 	928 	933
f 962 	964 	930
f 962 	930 	929
f 933 	932 	965
f 933 	965 	963
f 964 	966 	931
f 964 	931 	930
f 962 	925 	966
f 962 	966 	964
f 932 	931 	966
f 932 	966 	965
f 965 	966 	963
f 927 	963 	966
f 925 	927 	966
f 1066 	1075 	1079
f 1003 	1004 	1075
f 375 	374 	1003
f 375 	1003 	1005
f 1003 	374 	373
f 1003 	373 	1004
f 598 	1044 	941
f 598 	597 	1046
f 598 	1046 	1044
f 941 	1044 	1046
f 473 	1046 	597
f 1062 	1063 	1064
f 1078 	1068 	1066
f 1064 	1071 	1062
f 1076 	1062 	1072
f 1071 	1072 	1062
f 1070 	1062 	1076
f 1073 	1070 	1005
f 1076 	1074 	1070
f 1074 	1005 	1070
f 1077 	1078 	1066
f 1004 	1079 	1075
f 1005 	1003 	1073
f 1075 	1073 	1003
f 1077 	1066 	1079
f 423 	1063 	1062
f 423 	1062 	424
f 424 	1062 	436
f 1064 	1063 	427
f 423 	427 	1063
f 428 	1075 	1066
f 1066 	473 	428
f 452 	434 	1068
f 452 	1068 	1078
f 1062 	1070 	436
f 442 	436 	1070
f 442 	1070 	1073
f 1071 	1064 	440
f 427 	440 	1064
f 440 	439 	1072
f 440 	1072 	1071
f 439 	1076 	1072
f 446 	442 	1073
f 446 	1073 	1075
f 439 	445 	1076
f 444 	1074 	1076
f 444 	1076 	445
f 428 	446 	1075
f 444 	375 	1005
f 444 	1005 	1074
f 1004 	373 	454
f 1004 	454 	1079
f 454 	453 	1077
f 454 	1077 	1079
f 452 	1078 	1077
f 452 	1077 	453
f 1066 	1068 	1111
f 1046 	1111 	941
f 1068 	941 	1111
f 473 	1066 	1111
f 1046 	473 	1111
f 1068 	434 	941
f 549 	941 	434
# 140 faces

g group_0_14093196

usemtl color_14093196
s 0

f 275 	276 	279
f 278 	275 	279
f 276 	581 	279
f 583 	279 	581
f 924 	921 	923
f 922 	923 	921
f 937 	923 	934
f 938 	950 	937
f 939 	953 	938
f 922 	934 	923
f 945 	957 	943
f 946 	948 	945
f 936 	947 	935
f 946 	935 	947
f 946 	947 	948
f 957 	945 	948
f 923 	937 	950
f 950 	938 	953
f 949 	952 	939
f 951 	961 	949
f 953 	939 	952
f 954 	960 	951
f 959 	954 	958
f 960 	954 	959
f 961 	951 	960
f 952 	949 	961
f 954 	943 	958
f 957 	958 	943
f 275 	1009 	276
f 583 	1011 	279
f 974 	947 	972
f 936 	972 	947
f 975 	934 	922
f 975 	922 	921
f 936 	935 	977
f 936 	977 	972
f 921 	924 	975
f 990 	974 	977
f 982 	975 	924
f 924 	993 	982
f 984 	982 	993
f 993 	995 	984
f 987 	998 	988
f 988 	991 	990
f 991 	974 	990
f 972 	977 	974
f 985 	984 	995
f 995 	996 	985
f 994 	992 	999
f 996 	999 	992
f 992 	985 	996
f 991 	988 	998
f 1001 	1002 	997
f 999 	1000 	994
f 997 	994 	1000
f 1000 	1001 	997
f 987 	997 	1002
f 998 	987 	1002
f 934 	975 	982
f 935 	990 	977
f 982 	937 	934
f 937 	982 	984
f 937 	984 	938
f 938 	984 	985
f 938 	985 	939
f 939 	985 	992
f 945 	943 	987
f 945 	987 	988
f 946 	945 	988
f 946 	988 	990
f 935 	946 	990
f 957 	948 	991
f 948 	947 	974
f 948 	974 	991
f 949 	939 	992
f 951 	949 	992
f 951 	992 	994
f 923 	950 	993
f 923 	993 	924
f 950 	953 	993
f 954 	951 	994
f 954 	994 	997
f 953 	995 	993
f 952 	996 	995
f 952 	995 	953
f 583 	581 	1009
f 583 	1009 	1011
f 999 	996 	952
f 997 	987 	954
f 943 	954 	987
f 952 	961 	999
f 961 	960 	1000
f 961 	1000 	999
f 1000 	960 	959
f 1000 	959 	1001
f 959 	958 	1002
f 959 	1002 	1001
f 958 	957 	998
f 958 	998 	1002
f 991 	998 	957
f 581 	276 	1009
f 1009 	275 	278
f 278 	279 	1011
f 1011 	1009 	278
# 104 faces

g group_0_14541540

usemtl color_14541540
s 0

f 266 	267 	268
f 266 	268 	269
f 1040 	269 	272
f 269 	268 	272
f 270 	272 	268
f 368 	369 	417
f 594 	545 	369
f 362 	364 	532
f 532 	364 	541
f 532 	541 	545
f 532 	545 	592
f 417 	369 	545
f 541 	417 	545
f 595 	545 	594
f 592 	588 	532
f 369 	1012 	594
f 364 	980 	541
f 1023 	783 	532
f 362 	532 	783
f 592 	545 	784
f 784 	782 	783
f 1039 	784 	545
f 1039 	545 	595
f 1039 	1012 	784
f 979 	980 	364
f 979 	364 	362
f 983 	969 	369
f 983 	369 	368
f 1016 	1018 	1015
f 1017 	1015 	1018
f 270 	1019 	1020
f 270 	1020 	1021
f 532 	588 	1023
f 1016 	1026 	1025
f 1024 	1025 	1026
f 1028 	1029 	1025
f 1029 	1018 	1025
f 1016 	1025 	1018
f 1033 	783 	1023
f 1031 	1032 	267
f 1031 	267 	1020
f 1024 	1026 	266
f 267 	266 	1026
f 1026 	1021 	267
f 1020 	267 	1021
f 1033 	1023 	592
f 588 	592 	1023
f 1019 	1034 	1031
f 1019 	1031 	1020
f 1026 	1016 	1015
f 1026 	1015 	272
f 592 	784 	1033
f 1035 	1017 	1018
f 1035 	1018 	1029
f 784 	783 	1033
f 1029 	1028 	1041
f 1029 	1041 	1035
f 595 	594 	1012
f 595 	1012 	1039
f 1040 	1043 	1025
f 1040 	1025 	1024
f 1015 	1043 	272
f 1040 	272 	1043
f 1028 	1025 	1043
f 1028 	1043 	1041
f 1041 	1043 	1035
f 1017 	1035 	1043
f 1015 	1017 	1043
f 272 	270 	1021
f 272 	1021 	1026
f 1012 	369 	969
f 1034 	1047 	1032
f 1034 	1032 	1031
f 1024 	266 	269
f 1024 	269 	1040
f 782 	541 	980
f 1047 	268 	267
f 1047 	267 	1032
f 270 	268 	1019
f 1034 	1019 	268
f 1034 	268 	1047
f 783 	979 	362
f 783 	782 	980
f 783 	980 	979
f 368 	417 	983
f 1058 	983 	417
f 1058 	784 	969
f 983 	1058 	969
f 417 	541 	1058
f 782 	1058 	541
f 782 	784 	1058
f 1012 	969 	784
# 92 faces

g group_0_15277357

usemtl color_15277357
s 0

f 1 	2 	3
f 1 	3 	4
f 171 	172 	173
f 171 	173 	175
f 177 	181 	176
f 179 	176 	181
f 182 	1 	4
f 182 	4 	183
f 308 	306 	307
f 308 	307 	309
f 340 	337 	339
f 336 	339 	337
f 344 	307 	341
f 343 	344 	341
f 747 	341 	345
f 307 	345 	341
f 309 	307 	344
f 737 	336 	337
f 737 	337 	738
f 345 	940 	738
f 747 	748 	749
f 747 	749 	750
f 737 	750 	749
f 175 	755 	752
f 173 	755 	175
f 341 	747 	944
f 750 	944 	747
f 177 	760 	759
f 758 	759 	760
f 748 	341 	749
f 944 	749 	341
f 752 	755 	761
f 759 	761 	755
f 755 	181 	759
f 177 	759 	181
f 3 	758 	760
f 183 	4 	760
f 3 	760 	4
f 339 	336 	762
f 737 	749 	336
f 762 	336 	749
f 944 	762 	749
f 760 	177 	176
f 760 	176 	763
f 755 	173 	172
f 755 	172 	764
f 808 	171 	175
f 808 	175 	752
f 172 	171 	764
f 808 	764 	171
f 764 	179 	181
f 764 	181 	755
f 752 	761 	812
f 752 	812 	808
f 810 	814 	759
f 810 	759 	758
f 176 	814 	763
f 810 	763 	814
f 761 	759 	814
f 761 	814 	812
f 764 	814 	179
f 808 	812 	764
f 812 	814 	764
f 176 	179 	814
f 763 	182 	183
f 763 	183 	760
f 758 	3 	2
f 758 	2 	810
f 182 	763 	1
f 2 	1 	763
f 2 	763 	810
f 748 	747 	738
f 345 	738 	747
f 738 	337 	748
f 337 	343 	748
f 340 	343 	337
f 341 	748 	343
f 737 	738 	940
f 345 	307 	306
f 345 	306 	940
f 762 	942 	344
f 762 	344 	343
f 762 	944 	942
f 750 	940 	944
f 942 	308 	309
f 942 	309 	344
f 750 	737 	940
f 942 	944 	306
f 308 	942 	306
f 940 	306 	944
f 339 	762 	343
f 339 	343 	340
# 92 faces

g group_0_16089887

usemtl color_16089887
s 0

f 21 	43 	20
f 28 	43 	21
f 33 	675 	28
f 50 	671 	36
f 44 	20 	43
f 49 	50 	51
f 36 	51 	50
f 161 	162 	163
f 161 	163 	164
f 165 	166 	168
f 165 	168 	169
f 331 	333 	330
f 334 	330 	333
f 522 	523 	525
f 522 	525 	526
f 554 	555 	548
f 528 	547 	527
f 542 	564 	544
f 544 	556 	546
f 546 	527 	547
f 528 	554 	547
f 548 	547 	554
f 552 	550 	522
f 550 	548 	555
f 522 	550 	555
f 527 	546 	533
f 559 	573 	560
f 533 	546 	556
f 560 	564 	542
f 556 	544 	564
f 566 	599 	568
f 539 	577 	569
f 569 	568 	539
f 571 	569 	564
f 573 	571 	564
f 564 	569 	577
f 557 	574 	559
f 579 	575 	557
f 564 	560 	573
f 574 	557 	575
f 573 	559 	574
f 579 	580 	582
f 579 	582 	575
f 522 	584 	552
f 522 	585 	584
f 526 	580 	585
f 526 	585 	522
f 591 	589 	331
f 593 	591 	600
f 331 	600 	591
f 539 	568 	538
f 538 	568 	536
f 600 	601 	596
f 566 	596 	601
f 593 	600 	596
f 601 	602 	566
f 602 	603 	566
f 603 	599 	566
f 536 	568 	599
f 333 	331 	590
f 590 	582 	333
f 580 	526 	582
f 589 	590 	331
f 333 	582 	526
f 622 	611 	527
f 615 	528 	527
f 615 	527 	611
f 633 	554 	615
f 621 	538 	536
f 621 	536 	608
f 622 	533 	661
f 527 	533 	622
f 528 	615 	554
f 631 	539 	538
f 631 	538 	621
f 631 	44 	539
f 633 	635 	555
f 633 	555 	554
f 635 	523 	522
f 635 	522 	555
f 637 	678 	560
f 637 	560 	542
f 640 	637 	542
f 640 	542 	544
f 641 	640 	544
f 641 	544 	546
f 645 	641 	546
f 645 	546 	547
f 647 	645 	547
f 647 	547 	548
f 647 	548 	550
f 647 	550 	652
f 652 	550 	552
f 652 	552 	654
f 533 	556 	661
f 44 	577 	539
f 556 	564 	43
f 556 	43 	661
f 671 	50 	557
f 675 	671 	557
f 675 	557 	559
f 678 	675 	559
f 678 	559 	560
f 44 	43 	564
f 44 	564 	577
f 579 	557 	50
f 683 	723 	566
f 687 	683 	566
f 687 	566 	568
f 20 	687 	568
f 20 	568 	569
f 21 	20 	569
f 21 	569 	571
f 21 	571 	573
f 21 	573 	28
f 28 	573 	574
f 28 	574 	33
f 33 	574 	575
f 33 	575 	36
f 50 	49 	580
f 50 	580 	579
f 575 	582 	51
f 575 	51 	36
f 703 	654 	584
f 552 	584 	654
f 703 	584 	585
f 703 	585 	704
f 580 	49 	704
f 580 	704 	585
f 331 	330 	707
f 331 	707 	600
f 707 	709 	601
f 707 	601 	600
f 709 	710 	602
f 709 	602 	601
f 710 	711 	603
f 710 	603 	602
f 711 	712 	599
f 711 	599 	603
f 536 	599 	712
f 536 	712 	608
f 719 	720 	590
f 719 	590 	589
f 721 	719 	589
f 721 	589 	591
f 722 	721 	591
f 722 	591 	593
f 723 	722 	593
f 723 	593 	596
f 723 	596 	566
f 582 	590 	720
f 582 	720 	51
f 163 	740 	739
f 741 	742 	739
f 742 	164 	739
f 163 	739 	164
f 739 	740 	745
f 743 	745 	740
f 169 	168 	740
f 743 	740 	168
f 166 	765 	743
f 166 	743 	168
f 740 	163 	162
f 740 	162 	766
f 793 	161 	164
f 793 	164 	742
f 742 	741 	795
f 742 	795 	793
f 162 	796 	766
f 741 	739 	796
f 741 	796 	795
f 793 	796 	161
f 795 	796 	793
f 162 	161 	796
f 766 	165 	169
f 766 	169 	740
f 739 	745 	796
f 802 	796 	745
f 745 	743 	765
f 745 	765 	802
f 165 	766 	166
f 765 	166 	766
f 796 	802 	766
f 765 	766 	802
f 525 	523 	704
f 703 	704 	523
f 704 	49 	525
f 525 	49 	51
f 722 	707 	721
f 721 	330 	719
f 723 	707 	722
f 334 	720 	330
f 710 	709 	683
f 608 	712 	687
f 711 	710 	683
f 711 	683 	712
f 723 	683 	709
f 707 	723 	709
f 330 	721 	707
f 720 	334 	51
f 719 	330 	720
f 525 	51 	334
f 334 	526 	525
f 333 	526 	334
f 622 	641 	611
f 631 	20 	44
f 621 	608 	687
f 683 	687 	712
f 647 	633 	645
f 615 	611 	645
f 523 	635 	652
f 654 	523 	652
f 641 	645 	611
f 703 	523 	654
f 647 	652 	635
f 635 	633 	647
f 615 	645 	633
f 622 	661 	641
f 640 	641 	661
f 33 	36 	671
f 675 	33 	671
f 43 	28 	678
f 675 	678 	28
f 678 	637 	43
f 637 	640 	43
f 661 	43 	640
f 20 	631 	687
f 631 	621 	687
# 228 faces

g group_0_16448250

usemtl color_16448250
s 0

f 822 	823 	824
f 822 	824 	826
f 845 	846 	826
f 845 	826 	824
f 891 	892 	890
f 846 	893 	894
f 846 	894 	826
f 896 	892 	895
f 894 	895 	892
f 890 	892 	896
f 892 	822 	894
f 826 	894 	822
f 903 	898 	890
f 900 	898 	899
f 903 	899 	898
f 823 	822 	892
f 899 	823 	892
f 902 	845 	901
f 823 	899 	901
f 845 	824 	901
f 824 	823 	901
f 904 	901 	899
f 903 	904 	899
f 846 	845 	902
f 846 	902 	893
f 902 	901 	894
f 902 	894 	893
f 894 	901 	904
f 894 	904 	895
f 898 	900 	891
f 898 	891 	890
f 903 	896 	895
f 903 	895 	904
f 892 	891 	900
f 892 	900 	899
f 890 	896 	903
# 36 faces

g group_0_16768282

usemtl color_16768282
s 0

f 78 	366 	77
f 87 	84 	92
f 91 	92 	84
f 89 	87 	365
f 92 	365 	87
f 234 	708 	238
f 242 	258 	241
f 256 	252 	240
f 241 	258 	240
f 248 	246 	235
f 235 	254 	248
f 235 	246 	234
f 259 	243 	250
f 250 	248 	259
f 254 	259 	248
f 243 	244 	250
f 252 	250 	244
f 244 	240 	252
f 256 	240 	258
f 260 	258 	242
f 242 	751 	260
f 262 	260 	751
f 751 	753 	262
f 93 	89 	82
f 82 	77 	93
f 365 	82 	89
f 93 	77 	366
f 78 	392 	366
f 410 	411 	372
f 378 	415 	380
f 385 	386 	383
f 407 	409 	380
f 367 	366 	392
f 389 	367 	397
f 397 	398 	389
f 393 	397 	367
f 392 	393 	367
f 399 	400 	390
f 398 	399 	389
f 390 	389 	399
f 400 	403 	395
f 395 	390 	400
f 372 	395 	403
f 376 	372 	411
f 410 	372 	403
f 385 	383 	388
f 388 	383 	409
f 380 	409 	383
f 412 	413 	404
f 411 	412 	376
f 404 	376 	412
f 378 	404 	413
f 413 	414 	378
f 414 	415 	378
f 407 	380 	415
f 418 	420 	77
f 418 	77 	82
f 420 	421 	78
f 420 	78 	77
f 425 	426 	84
f 425 	84 	87
f 425 	87 	89
f 425 	89 	429
f 426 	433 	84
f 91 	84 	433
f 432 	429 	89
f 432 	89 	93
f 435 	92 	91
f 435 	91 	433
f 438 	432 	93
f 438 	93 	366
f 92 	435 	365
f 441 	365 	435
f 82 	365 	418
f 441 	418 	365
f 438 	366 	367
f 438 	367 	447
f 451 	450 	372
f 451 	372 	376
f 459 	490 	378
f 462 	459 	378
f 462 	378 	380
f 463 	462 	380
f 463 	380 	383
f 386 	465 	463
f 386 	463 	383
f 517 	467 	388
f 467 	469 	385
f 467 	385 	388
f 469 	465 	386
f 469 	386 	385
f 367 	389 	470
f 367 	470 	447
f 470 	389 	390
f 470 	390 	474
f 474 	390 	395
f 474 	395 	475
f 421 	478 	392
f 421 	392 	78
f 478 	479 	393
f 478 	393 	392
f 479 	481 	393
f 372 	450 	395
f 475 	395 	450
f 481 	397 	393
f 481 	484 	398
f 481 	398 	397
f 484 	486 	399
f 484 	399 	398
f 399 	486 	488
f 399 	488 	400
f 376 	404 	451
f 490 	451 	404
f 403 	400 	493
f 488 	493 	400
f 493 	501 	403
f 490 	404 	378
f 501 	410 	403
f 501 	503 	411
f 501 	411 	410
f 503 	506 	412
f 503 	412 	411
f 506 	509 	413
f 506 	413 	412
f 413 	509 	512
f 413 	512 	414
f 512 	514 	415
f 512 	415 	414
f 514 	516 	407
f 514 	407 	415
f 517 	409 	407
f 517 	407 	516
f 388 	409 	517
f 617 	632 	616
f 618 	701 	617
f 642 	648 	627
f 625 	627 	648
f 628 	638 	627
f 644 	616 	634
f 636 	649 	634
f 632 	634 	616
f 638 	628 	636
f 642 	627 	638
f 649 	644 	634
f 648 	653 	623
f 628 	629 	636
f 649 	636 	629
f 729 	623 	653
f 657 	729 	653
f 663 	727 	657
f 623 	625 	648
f 728 	729 	657
f 682 	686 	718
f 717 	718 	686
f 689 	717 	686
f 680 	682 	730
f 744 	746 	688
f 691 	715 	689
f 693 	696 	714
f 692 	732 	694
f 701 	618 	699
f 697 	724 	700
f 699 	619 	698
f 713 	698 	619
f 632 	617 	701
f 619 	699 	618
f 705 	237 	706
f 668 	677 	731
f 730 	731 	677
f 677 	680 	730
f 731 	733 	668
f 667 	668 	733
f 234 	246 	708
f 706 	238 	708
f 725 	237 	705
f 237 	238 	706
f 685 	263 	756
f 756 	757 	685
f 754 	756 	263
f 688 	684 	744
f 690 	688 	746
f 715 	691 	714
f 716 	689 	715
f 730 	682 	718
f 717 	689 	716
f 693 	714 	691
f 698 	713 	696
f 713 	714 	696
f 728 	657 	727
f 726 	727 	663
f 733 	726 	667
f 663 	667 	726
f 705 	702 	725
f 724 	725 	702
f 702 	700 	724
f 695 	694 	734
f 746 	732 	692
f 732 	734 	694
f 735 	736 	695
f 734 	735 	695
f 697 	695 	736
f 724 	697 	736
f 692 	690 	746
f 753 	754 	262
f 263 	262 	754
f 684 	685 	757
f 744 	684 	757
f 619 	618 	238
f 619 	238 	237
f 618 	617 	234
f 618 	234 	238
f 616 	235 	234
f 616 	234 	617
f 235 	616 	644
f 629 	628 	244
f 629 	244 	243
f 628 	627 	240
f 628 	240 	244
f 627 	625 	241
f 627 	241 	240
f 625 	623 	242
f 625 	242 	241
f 623 	729 	242
f 235 	644 	254
f 649 	254 	644
f 254 	649 	259
f 243 	259 	629
f 649 	629 	259
f 632 	701 	246
f 634 	632 	246
f 634 	246 	248
f 636 	634 	248
f 636 	248 	250
f 636 	250 	252
f 636 	252 	638
f 638 	252 	256
f 638 	256 	642
f 642 	256 	258
f 642 	258 	648
f 648 	258 	260
f 648 	260 	653
f 653 	260 	262
f 653 	262 	657
f 657 	262 	263
f 657 	263 	663
f 237 	725 	713
f 237 	713 	619
f 685 	684 	668
f 685 	668 	667
f 668 	684 	688
f 668 	688 	677
f 677 	688 	690
f 677 	690 	680
f 682 	680 	690
f 682 	690 	692
f 686 	682 	692
f 686 	692 	694
f 689 	686 	694
f 689 	694 	695
f 691 	689 	695
f 691 	695 	697
f 693 	691 	697
f 693 	697 	700
f 696 	693 	700
f 696 	700 	702
f 698 	696 	702
f 698 	702 	705
f 699 	698 	705
f 699 	705 	706
f 701 	699 	706
f 701 	706 	708
f 701 	708 	246
f 667 	663 	685
f 263 	685 	663
f 718 	732 	730
f 717 	734 	732
f 717 	732 	718
f 716 	735 	734
f 716 	734 	717
f 715 	736 	735
f 715 	735 	716
f 714 	724 	736
f 714 	736 	715
f 713 	725 	724
f 713 	724 	714
f 756 	726 	733
f 756 	733 	757
f 733 	731 	744
f 733 	744 	757
f 731 	730 	746
f 731 	746 	744
f 732 	746 	730
f 729 	751 	242
f 729 	728 	753
f 729 	753 	751
f 728 	727 	754
f 728 	754 	753
f 727 	726 	756
f 727 	756 	754
f 420 	438 	421
f 433 	426 	435
f 418 	441 	429
f 425 	435 	426
f 432 	418 	429
f 435 	425 	441
f 425 	429 	441
f 438 	420 	432
f 420 	418 	432
f 447 	478 	438
f 503 	450 	451
f 517 	516 	462
f 469 	467 	463
f 462 	463 	517
f 465 	469 	463
f 517 	463 	467
f 470 	481 	447
f 474 	486 	470
f 475 	488 	474
f 479 	447 	481
f 479 	478 	447
f 421 	438 	478
f 481 	470 	484
f 486 	484 	470
f 488 	486 	474
f 450 	493 	475
f 503 	501 	450
f 488 	475 	493
f 493 	450 	501
f 490 	506 	451
f 512 	509 	459
f 514 	512 	459
f 490 	459 	509
f 506 	490 	509
f 503 	451 	506
f 459 	462 	514
f 516 	514 	462
# 336 faces

 #end of obj_0

