# Blender 4.3.2
# www.blender.org
mtllib untitled.mtl
o Cube
v 0.967676 1.041729 -0.258586
v 1.000000 -1.000000 -1.000000
v 0.953902 1.081541 0.110884
v 1.000000 -1.000000 1.000000
v -0.415647 1.452603 -0.231911
v -1.000000 -1.000000 -1.000000
v -0.486025 1.317056 0.293661
v -1.000000 -1.000000 1.000000
vn 0.2302 0.9651 0.1249
vn 0.0728 0.3332 0.9400
vn -0.9743 0.2246 -0.0151
vn -0.0000 -1.0000 -0.0000
vn 0.9998 0.0192 0.0055
vn 0.0308 0.3148 -0.9486
vt 0.625000 0.500000
vt 0.875000 0.500000
vt 0.875000 0.750000
vt 0.625000 0.750000
vt 0.375000 0.750000
vt 0.625000 1.000000
vt 0.375000 1.000000
vt 0.375000 0.000000
vt 0.625000 0.000000
vt 0.625000 0.250000
vt 0.375000 0.250000
vt 0.125000 0.500000
vt 0.375000 0.500000
vt 0.125000 0.750000
s 0
usemtl Material
f 1/1/1 5/2/1 7/3/1 3/4/1
f 4/5/2 3/4/2 7/6/2 8/7/2
f 8/8/3 7/9/3 5/10/3 6/11/3
f 6/12/4 2/13/4 4/5/4 8/14/4
f 2/13/5 1/1/5 3/4/5 4/5/5
f 6/11/6 5/10/6 1/1/6 2/13/6
